<svg width="132" height="132" viewBox="0 0 132 132" fill="none" xmlns="http://www.w3.org/2000/svg">
<g clip-path="url(#clip0_112_6)">
<path d="M28.875 0C29.969 0 31.0182 0.434597 31.7918 1.20818C32.5654 1.98177 33 3.03098 33 4.125V8.25H99V4.125C99 3.03098 99.4346 1.98177 100.208 1.20818C100.982 0.434597 102.031 0 103.125 0C104.219 0 105.268 0.434597 106.042 1.20818C106.815 1.98177 107.25 3.03098 107.25 4.125V8.25H115.5C119.876 8.25 124.073 9.98839 127.167 13.0827C130.262 16.1771 132 20.3739 132 24.75V115.5C132 119.876 130.262 124.073 127.167 127.167C124.073 130.262 119.876 132 115.5 132H16.5C12.1239 132 7.92709 130.262 4.83274 127.167C1.73839 124.073 0 119.876 0 115.5V24.75C0 20.3739 1.73839 16.1771 4.83274 13.0827C7.92709 9.98839 12.1239 8.25 16.5 8.25H24.75V4.125C24.75 3.03098 25.1846 1.98177 25.9582 1.20818C26.7318 0.434597 27.781 0 28.875 0ZM8.25 33V115.5C8.25 117.688 9.11919 119.786 10.6664 121.334C12.2135 122.881 14.312 123.75 16.5 123.75H115.5C117.688 123.75 119.786 122.881 121.334 121.334C122.881 119.786 123.75 117.688 123.75 115.5V33H8.25Z" fill="#7289DA"/>
<path d="M92.7355 57.5084C87.8573 55.2912 82.709 53.7096 77.4196 52.8032C77.3717 52.7952 77.3225 52.8021 77.2787 52.823C77.2349 52.8438 77.1987 52.8775 77.1751 52.9196C76.5121 54.0831 75.7785 55.6049 75.2659 56.7963C69.5647 55.9408 63.7656 55.9408 58.0644 56.7963C57.495 55.468 56.8481 54.1736 56.127 52.9196C56.1033 52.8775 56.0671 52.8438 56.0234 52.823C55.9796 52.8021 55.9303 52.7952 55.8824 52.8032C50.5922 53.7061 45.443 55.2884 40.5665 57.5084C40.5246 57.5238 40.4896 57.5535 40.4678 57.5922C30.7149 72.0149 28.0392 86.0838 29.3512 99.976C29.3606 100.044 29.3935 100.102 29.4499 100.148C35.1304 104.31 41.4824 107.489 48.2362 109.549C48.2839 109.564 48.3352 109.564 48.3825 109.548C48.4299 109.532 48.4709 109.501 48.4996 109.461C49.9511 107.506 51.2333 105.444 52.3462 103.276C52.3693 103.231 52.3772 103.18 52.3688 103.131C52.3603 103.081 52.3359 103.036 52.2992 103.001L52.2145 102.95C50.1894 102.177 48.2274 101.251 46.3459 100.181C46.2933 100.151 46.2543 100.103 46.2368 100.046C46.2192 99.9886 46.2246 99.9269 46.2518 99.8736L46.3223 99.7852C46.7205 99.4904 47.1092 99.1879 47.4885 98.8776C47.5218 98.8512 47.5617 98.8342 47.6039 98.8284C47.6461 98.8227 47.6892 98.8284 47.7284 98.845C60.0441 104.411 73.3755 104.411 85.5408 98.845C85.5812 98.8266 85.626 98.8198 85.6702 98.8256C85.7143 98.8314 85.7558 98.8494 85.79 98.8776C86.1693 99.1879 86.5581 99.4904 86.9562 99.7852C86.9893 99.8076 87.0161 99.838 87.0339 99.8735C87.0518 99.909 87.0602 99.9485 87.0583 99.9881C87.0564 100.028 87.0443 100.066 87.0232 100.1C87.002 100.134 86.9725 100.162 86.9374 100.181C85.0639 101.268 83.0988 102.193 81.064 102.945C81.0316 102.957 81.0022 102.975 80.9778 102.999C80.9534 103.024 80.9347 103.053 80.923 103.085C80.9115 103.116 80.9069 103.149 80.9093 103.182C80.9117 103.215 80.9212 103.247 80.9371 103.276C82.0657 105.44 83.3588 107.506 84.779 109.461C84.8077 109.501 84.8487 109.532 84.896 109.548C84.9434 109.564 84.9946 109.564 85.0423 109.549C91.8095 107.5 98.1727 104.32 103.857 100.148C103.885 100.128 103.909 100.103 103.926 100.073C103.943 100.043 103.953 100.01 103.956 99.976C105.526 83.9151 101.327 69.9624 92.8296 57.5968C92.8222 57.5757 92.8098 57.5567 92.7934 57.5413C92.7771 57.5259 92.7572 57.5146 92.7355 57.5084ZM54.1848 91.515C50.4746 91.515 47.4227 88.1455 47.4227 84.0128C47.4227 79.8801 50.4182 76.5059 54.1848 76.5059C57.9797 76.5059 61.0034 79.9033 60.947 84.0128C60.947 88.1455 57.9515 91.515 54.1848 91.515ZM79.1831 91.515C75.4775 91.515 72.4209 88.1455 72.4209 84.0128C72.4209 79.8801 75.4164 76.5059 79.1831 76.5059C82.9779 76.5059 86.0063 79.9033 85.9452 84.0128C85.9452 88.1455 82.9779 91.515 79.1831 91.515Z" fill="#7289DA"/>
</g>
<defs>
<clipPath id="clip0_112_6">
<rect width="132" height="132" fill="white"/>
</clipPath>
</defs>
</svg>
